# xmcd
#
# Track frame offsets:
#  150
#  27285
#  38515
#  67850
#
# Disc length: 1199 seconds
#
# Revision: 2
# Processed by: cddbd v1.5.2PL0 Copyright (c) Steve Scherf et al.
# Submitted via: Collectorz.com_Music_Collector 6.11
#
DISCID=2404ad04
DTITLE=Leonard Cohen - Gala - Leonard Cohen
DYEAR=2002
DGENRE=Ballad - Blues
TTITLE0=Boogie Street
TTITLE1=Who by fire
TTITLE2=Lover lover
TTITLE3=The stranger song
EXTD=
EXTT0=
EXTT1=
EXTT2=
EXTT3=
PLAYORDER=
